<svg width="25" height="29" viewBox="0 0 25 29" fill="none" xmlns="http://www.w3.org/2000/svg">
<path d="M22.1429 18.2488V12.378C22.1429 8.48781 19.7857 5.16342 16.4286 3.67805C16.2857 1.62683 14.5714 0 12.5 0C10.4286 0 8.71429 1.62683 8.57143 3.67805C5.21429 5.16342 2.85714 8.48781 2.85714 12.378V18.2488C0.928571 19.8049 0 21.9268 0 24.4024C0 24.9683 0.5 25.4634 1.07143 25.4634H8C8.5 27.5146 10.3571 29 12.5 29C14.6429 29 16.5 27.5146 17 25.4634H23.9286C24.5 25.4634 25 24.9683 25 24.4024C25 21.8561 24.0714 19.8049 22.1429 18.2488ZM12.5 2.12195C13.1429 2.12195 13.7143 2.47561 14 2.97073C13.5 2.9 13 2.82927 12.5 2.82927C12 2.82927 11.5 2.9 11 2.97073C11.2857 2.47561 11.8571 2.12195 12.5 2.12195ZM12.5 26.878C11.5 26.878 10.6429 26.3122 10.2857 25.4634H14.7857C14.3571 26.3122 13.5 26.878 12.5 26.878ZM2.21429 23.3415C2.42857 21.7854 3.21429 20.5829 4.57143 19.5927C4.85714 19.3805 5 19.0976 5 18.7439V12.378C5 8.27561 8.35714 4.95122 12.5 4.95122C16.6429 4.95122 20 8.27561 20 12.378V18.7439C20 19.0976 20.1429 19.3805 20.4286 19.5927C21.7857 20.5829 22.5714 21.7854 22.7857 23.3415H2.21429Z" fill="white"/>
</svg>
