<svg width="35" height="35" viewBox="0 0 35 35" fill="none" xmlns="http://www.w3.org/2000/svg">
<path d="M18.2599 4.29785H16.7987C15.9778 4.30983 15.1604 4.34202 14.3574 4.39437C8.24487 4.79281 3.37594 9.63509 2.9753 15.7142C2.8969 16.9037 2.8969 18.1357 2.9753 19.3254C3.12122 21.5394 4.11976 23.5894 5.29532 25.3205C5.97788 26.5322 5.52743 28.0448 4.81646 29.3659C4.30385 30.3185 4.04754 30.7948 4.25334 31.1388C4.45913 31.483 4.91882 31.494 5.83822 31.5159C7.65639 31.5593 8.88241 31.0539 9.85562 30.3501C10.4076 29.951 10.6836 29.7514 10.8738 29.7285C11.064 29.7056 11.4383 29.8567 12.1868 30.159C12.8596 30.4308 13.6407 30.5984 14.3574 30.6451C16.4385 30.7808 18.6158 30.7811 20.701 30.6451C26.5661 30.2629 31.3568 25.7891 32.0832 20.0572" stroke="#757889" stroke-width="1.5" stroke-linecap="round" stroke-linejoin="round"/>
<path d="M22.7353 12.3901C21.8183 12.9181 19.4141 13.9962 20.8784 15.3454C21.5937 16.0044 22.3905 16.4757 23.3921 16.4757H29.1076C30.1092 16.4757 30.906 16.0044 31.6214 15.3454C33.0857 13.9962 30.6815 12.9181 29.7645 12.3901C27.6141 11.1519 24.8856 11.1519 22.7353 12.3901Z" stroke="#757889" stroke-width="1.5"/>
<path d="M29.1668 5.73056C29.1668 7.31304 27.861 8.59589 26.2502 8.59589C24.6393 8.59589 23.3335 7.31304 23.3335 5.73056C23.3335 4.14809 24.6393 2.86523 26.2502 2.86523C27.861 2.86523 29.1668 4.14809 29.1668 5.73056Z" stroke="#757889" stroke-width="1.5"/>
<path d="M17.4933 17.9082H17.5063M11.6665 17.9082H11.6796" stroke="#757889" stroke-width="2" stroke-linecap="round" stroke-linejoin="round"/>
</svg>
