<svg width="35" height="45" viewBox="0 0 35 45" fill="none" xmlns="http://www.w3.org/2000/svg">
<path d="M32.1246 16.8122C30.7946 14.0762 28.6946 12.1322 26.3846 11.4842C24.7746 11.0882 23.2696 11.3042 21.9746 12.1322C20.9596 12.4922 19.9096 12.7082 18.8246 12.8162V10.6562C18.8246 10.0082 18.9646 8.46018 20.2246 8.46018C21.5196 8.46018 23.0246 7.92018 23.0246 5.40018V4.68018H21.6246V5.40018C21.6246 6.76818 21.1346 7.02018 20.2246 7.02018C18.5096 7.02018 17.4246 8.46018 17.4246 10.6562V12.8522C15.9546 12.8162 14.4496 12.5282 13.0496 11.9522C11.7546 11.0882 10.2146 10.8362 8.60458 11.3042C6.25958 11.9522 4.12458 13.9322 2.75958 16.7402C0.414581 21.5282 1.18458 27.2522 4.43958 29.4842C5.34958 30.0962 6.32958 30.4202 7.41458 30.4202C7.90458 30.4202 8.42958 30.3482 8.95458 30.2042C11.2296 29.5922 13.3296 27.6842 14.7296 25.0202C16.5496 24.2282 18.6146 24.2282 20.4346 24.9482C21.7996 27.5762 23.8646 29.4122 26.1046 30.0242C27.7146 30.4562 29.2196 30.2042 30.5146 29.3042C33.6646 27.1442 34.3996 21.5282 32.1246 16.8122ZM29.6746 28.1162C28.7296 28.7642 27.5746 28.9442 26.3846 28.6202C24.4946 28.1162 22.7096 26.4602 21.5546 24.1562C21.4496 23.9402 21.2396 23.7602 20.9946 23.6522L20.8546 23.6162C18.6496 22.7162 16.1296 22.7882 13.9596 23.7602C13.7496 23.8682 13.5746 24.0482 13.4346 24.2642C12.2446 26.6042 10.4246 28.3322 8.49958 28.8362C7.27458 29.1602 6.11958 28.9802 5.13958 28.2962C2.44458 26.4602 1.91958 21.5642 3.94958 17.3882C5.10458 14.9762 6.95958 13.2482 8.91958 12.7082C9.33958 12.6002 9.72458 12.5282 10.1096 12.5282C10.9146 12.5282 11.6496 12.7442 12.3146 13.2122L12.4546 13.2842C15.6746 14.5802 19.1746 14.6522 22.4296 13.5002L22.6046 13.4282L22.6746 13.3922C23.6546 12.7442 24.7746 12.5642 25.9996 12.8882C27.8896 13.3922 29.7096 15.1202 30.8646 17.4602C32.8596 21.5282 32.3346 26.3162 29.6746 28.1162Z" fill="#757889"/>
<path d="M25.5499 17.0283C23.7999 17.0283 22.3999 18.4683 22.3999 20.2683C22.3999 22.0683 23.7999 23.5083 25.5499 23.5083C27.2999 23.5083 28.6999 22.0683 28.6999 20.2683C28.6999 18.4683 27.2999 17.0283 25.5499 17.0283ZM25.5499 22.0683C24.5699 22.0683 23.7999 21.2763 23.7999 20.2683C23.7999 19.2603 24.5699 18.4683 25.5499 18.4683C26.5299 18.4683 27.2999 19.2603 27.2999 20.2683C27.2999 21.2763 26.5299 22.0683 25.5499 22.0683Z" fill="#757889"/>
<path d="M9.7998 17.46H8.3998V19.62H6.2998V21.06H8.3998V23.22H9.7998V21.06H11.8998V19.62H9.7998V17.46Z" fill="#757889"/>
</svg>
