<svg width="30" height="40" viewBox="0 0 30 40" fill="none" xmlns="http://www.w3.org/2000/svg">
<path d="M15.214 22.5311C15.214 24.0311 15.214 25.5343 15.214 27.0343C15.214 27.2718 15.2316 27.5186 15.2052 27.753C15.2257 27.5874 15.2463 27.4218 15.2668 27.253C15.255 27.3249 15.2375 27.3905 15.214 27.4561C15.2726 27.3061 15.3312 27.1561 15.3898 27.0093C15.3576 27.0874 15.3195 27.1561 15.2726 27.2249C15.3634 27.0999 15.4572 26.9718 15.548 26.8468C15.4982 26.9124 15.4455 26.9686 15.384 27.0186C15.5011 26.9218 15.6213 26.8218 15.7384 26.7249C15.6857 26.7655 15.63 26.7999 15.5715 26.828C15.7121 26.7655 15.8527 26.703 15.9904 26.6405C15.9289 26.6655 15.8674 26.6843 15.8029 26.6968C15.9582 26.6749 16.1134 26.653 16.2716 26.6311C16.134 26.6499 15.9933 26.6405 15.8556 26.6405C15.5715 26.6405 15.2902 26.6405 15.006 26.6405C14.0627 26.6405 13.1193 26.6405 12.1759 26.6405C11.0246 26.6405 9.87614 26.6405 8.72477 26.6405C7.73747 26.6405 6.75016 26.6405 5.76286 26.6405C5.29411 26.6405 4.82536 26.6468 4.35661 26.6405C4.31266 26.6405 4.26579 26.6374 4.22184 26.6311C4.37712 26.653 4.53239 26.6749 4.69059 26.6968C4.62614 26.6843 4.56462 26.6655 4.50309 26.6405C4.64372 26.703 4.78434 26.7655 4.92204 26.828C4.86344 26.7999 4.80778 26.7655 4.75505 26.7249C4.87223 26.8218 4.99235 26.9218 5.10954 27.0186C5.04801 26.9686 4.99235 26.9124 4.94548 26.8468C5.0363 26.9718 5.13005 27.0999 5.22087 27.2249C5.17399 27.1561 5.13591 27.0874 5.10368 27.0093C5.16227 27.1593 5.22087 27.3093 5.27946 27.4561C5.25602 27.3905 5.23844 27.3218 5.22673 27.253C5.24723 27.4186 5.26774 27.5843 5.28825 27.753C5.26188 27.5155 5.27946 27.2686 5.27946 27.028C5.27946 26.4686 5.27946 25.9061 5.27946 25.3468C5.27946 24.5124 5.27946 23.678 5.27946 22.8436C5.27946 21.8218 5.27946 20.7999 5.27946 19.7811C5.27946 18.6624 5.27946 17.5405 5.27946 16.4218C5.27946 15.2905 5.27946 14.1593 5.27946 13.028C5.27946 11.9749 5.27946 10.9218 5.27946 9.86552C5.27946 8.97802 5.27946 8.08739 5.27946 7.19989C5.27946 6.56239 5.27946 5.92802 5.27946 5.29052C5.27946 4.99364 5.27653 4.69989 5.27946 4.40302C5.27946 4.34989 5.28239 4.29677 5.28825 4.24364C5.26774 4.40927 5.24723 4.57489 5.22673 4.74364C5.23844 4.67489 5.25602 4.60927 5.27946 4.54364C5.22087 4.69364 5.16227 4.84364 5.10368 4.99052C5.13591 4.91552 5.17399 4.84677 5.22087 4.78114C5.13005 4.90614 5.0363 5.03427 4.94548 5.15927C4.98649 5.10614 5.03044 5.06239 5.08024 5.01864C4.96305 5.11552 4.84294 5.21552 4.72575 5.31239C4.78727 5.26239 4.85173 5.22489 4.92497 5.19052C4.78434 5.25302 4.64372 5.31552 4.50602 5.37802C4.56755 5.35302 4.62907 5.33739 4.69352 5.32489C4.53825 5.34677 4.38298 5.36864 4.22477 5.39052C4.36247 5.37177 4.50309 5.38114 4.64079 5.38114C4.92497 5.38114 5.20622 5.38114 5.4904 5.38114C6.43376 5.38114 7.37712 5.38114 8.32048 5.38114C9.47184 5.38114 10.6203 5.38114 11.7716 5.38114C12.759 5.38114 13.7463 5.38114 14.7336 5.38114C15.2023 5.38114 15.6711 5.37489 16.1398 5.38114C16.1838 5.38114 16.2306 5.38427 16.2746 5.39052C16.1193 5.36864 15.964 5.34677 15.8058 5.32489C15.8703 5.33739 15.9318 5.35302 15.9933 5.37802C15.8527 5.31552 15.7121 5.25302 15.5744 5.19052C15.6447 5.22177 15.7091 5.26239 15.7736 5.31239C15.6564 5.21552 15.5363 5.11552 15.4191 5.01864C15.4689 5.06239 15.5129 5.10614 15.5539 5.15927C15.4631 5.03427 15.3693 4.90614 15.2785 4.78114C15.3254 4.84677 15.3634 4.91239 15.3957 4.99052C15.3371 4.84052 15.2785 4.69052 15.2199 4.54364C15.2433 4.60927 15.2609 4.67489 15.2726 4.74364C15.2521 4.57802 15.2316 4.41239 15.2111 4.24364C15.2345 4.44052 15.2199 4.64677 15.2199 4.84364C15.2199 5.24364 15.2199 5.64677 15.2199 6.04677C15.2199 6.97802 15.2199 7.91239 15.2199 8.84364C15.2199 9.06239 15.2199 9.28114 15.2199 9.49677C15.2199 9.97802 15.4162 10.4811 15.7355 10.8218C16.0402 11.1468 16.5412 11.3905 16.9777 11.3718C17.4318 11.3499 17.9035 11.1905 18.2199 10.8218C18.5363 10.4561 18.7355 10.003 18.7355 9.49677C18.7355 8.41552 18.7355 7.33427 18.7355 6.25302C18.7355 5.68739 18.7355 5.12177 18.7355 4.55614C18.7355 4.22802 18.7209 3.89677 18.6271 3.58427C18.2726 2.42489 17.3029 1.66239 16.1574 1.63739C15.548 1.62489 14.9386 1.63739 14.3322 1.63739C13.0373 1.63739 11.7424 1.63739 10.4474 1.63739C9.12614 1.63739 7.80485 1.63739 6.48649 1.63739C5.7863 1.63739 5.0861 1.63427 4.38883 1.63739C4.37712 1.63739 4.3654 1.63739 4.35368 1.63739C4.23356 1.64052 4.11637 1.66239 3.99919 1.68114C3.86735 1.69989 3.73844 1.71239 3.61247 1.75302C3.19645 1.89364 2.92985 2.07802 2.60173 2.36864C2.55192 2.41239 2.50798 2.45614 2.46696 2.50927C2.34684 2.65614 2.22087 2.81864 2.12712 2.98739C1.9484 3.30614 1.86051 3.63427 1.81657 3.99364C1.79899 4.12489 1.77848 4.25302 1.77555 4.38427C1.77262 4.51552 1.77555 4.64364 1.77555 4.77489C1.77555 5.50614 1.77555 6.23739 1.77555 6.96864C1.77555 8.16239 1.77555 9.35927 1.77555 10.553C1.77555 11.9999 1.77555 13.4436 1.77555 14.8905C1.77555 16.3905 1.77555 17.8905 1.77555 19.3905C1.77555 20.7311 1.77555 22.0718 1.77555 23.4124C1.77555 24.3936 1.77555 25.3749 1.77555 26.3561C1.77555 26.7749 1.76969 27.1936 1.77555 27.6124C1.78727 28.3655 2.07145 29.1811 2.63395 29.6686C2.97673 29.9686 3.21989 30.1374 3.65055 30.2811C3.87614 30.3561 4.1193 30.3811 4.35368 30.3874C4.3654 30.3874 4.38005 30.3874 4.39176 30.3874C4.62907 30.3874 4.86637 30.3874 5.10368 30.3874C6.20231 30.3874 7.29801 30.3874 8.39665 30.3874C9.78825 30.3874 11.1799 30.3874 12.5715 30.3874C13.5939 30.3874 14.6193 30.3874 15.6418 30.3874C15.8146 30.3874 15.9875 30.3905 16.1603 30.3874C16.6261 30.378 17.0978 30.253 17.4933 29.9843C18.047 29.6093 18.4718 29.0311 18.6447 28.353C18.7238 28.0405 18.7384 27.728 18.7384 27.4124C18.7384 26.1218 18.7384 24.8311 18.7384 23.5374C18.7384 23.1999 18.7384 22.8655 18.7384 22.528C18.7384 22.0468 18.5422 21.5436 18.2228 21.203C17.9181 20.878 17.4172 20.6343 16.9806 20.653C16.5265 20.6749 16.0549 20.8343 15.7384 21.203C15.4103 21.5718 15.214 22.0218 15.214 22.5311Z" fill="#757889"/>
<path d="M9.36911 17.8905C9.93747 17.8905 10.5029 17.8905 11.0713 17.8905C12.4336 17.8905 13.7959 17.8905 15.1582 17.8905C16.8047 17.8905 18.4541 17.8905 20.1006 17.8905C21.5244 17.8905 22.9482 17.8905 24.375 17.8905C25.0664 17.8905 25.7607 17.8967 26.4521 17.8905C26.4609 17.8905 26.4726 17.8905 26.4814 17.8905C26.9326 17.8905 27.4043 17.6811 27.7236 17.3405C28.0283 17.0155 28.2568 16.4811 28.2392 16.0155C28.2187 15.5311 28.0693 15.028 27.7236 14.6905C27.3808 14.353 26.956 14.1405 26.4814 14.1405C25.9131 14.1405 25.3476 14.1405 24.7793 14.1405C23.417 14.1405 22.0547 14.1405 20.6924 14.1405C19.0459 14.1405 17.3965 14.1405 15.75 14.1405C14.3261 14.1405 12.9023 14.1405 11.4756 14.1405C10.7842 14.1405 10.0898 14.1342 9.39841 14.1405C9.38962 14.1405 9.3779 14.1405 9.36911 14.1405C8.91794 14.1405 8.44626 14.3498 8.12693 14.6905C7.82224 15.0155 7.59372 15.5498 7.6113 16.0155C7.63181 16.4998 7.78122 17.003 8.12693 17.3405C8.4697 17.678 8.89157 17.8905 9.36911 17.8905Z" fill="#757889"/>
<path d="M21.0442 12.8405C21.5159 13.3437 21.9876 13.8468 22.4593 14.3499C23.2122 15.153 23.9622 15.953 24.7151 16.7562C24.888 16.9405 25.0638 17.128 25.2366 17.3124C25.2366 16.428 25.2366 15.5437 25.2366 14.6593C24.765 15.1624 24.2933 15.6655 23.8216 16.1687C23.0687 16.9718 22.3187 17.7718 21.5657 18.5749C21.3929 18.7593 21.2171 18.9468 21.0442 19.1312C20.7249 19.4718 20.5286 19.9749 20.5286 20.4562C20.5286 20.9155 20.7191 21.4655 21.0442 21.7812C21.3782 22.1093 21.8177 22.353 22.2864 22.3312C22.7523 22.3093 23.1917 22.1405 23.5286 21.7812C24.0003 21.278 24.472 20.7749 24.9437 20.2718C25.6966 19.4687 26.4466 18.6687 27.1995 17.8655C27.3724 17.6812 27.5482 17.4937 27.721 17.3093C28.3919 16.5937 28.3948 15.3749 27.721 14.6562C27.2493 14.153 26.7776 13.6499 26.306 13.1468C25.553 12.3437 24.803 11.5437 24.0501 10.7405C23.8773 10.5562 23.7015 10.3687 23.5286 10.1843C23.2093 9.84365 22.7376 9.63428 22.2864 9.63428C21.8558 9.63428 21.3401 9.8374 21.0442 10.1843C20.7366 10.5405 20.5081 11.0093 20.5286 11.5093C20.5491 12.0093 20.7073 12.4812 21.0442 12.8405Z" fill="#757889"/>
</svg>
