<svg xmlns="http://www.w3.org/2000/svg" xmlns:xlink="http://www.w3.org/1999/xlink" version="1.1" x="0px" y="0px" viewBox="0 0 100 125" enable-background="new 0 0 100 100" xml:space="preserve"><path d="M88.522,75.19H59.663v-4.892c0-0.552-0.448-1-1-1h-0.948v-2.798c0-0.552-0.448-1-1-1h-1.224l3.452-26.444  c0.037-0.285-0.05-0.573-0.24-0.789s-0.464-0.34-0.751-0.34H56.08c0.045-0.023,0.094-0.038,0.136-0.069  c0.308-0.224,0.462-0.603,0.398-0.978l-0.986-5.749l4.176-4.071c0.272-0.266,0.371-0.663,0.253-1.025  c-0.118-0.362-0.431-0.626-0.807-0.681l-5.772-0.839l-2.581-5.23c-0.338-0.683-1.456-0.683-1.794,0l-2.581,5.23l-5.772,0.839  c-0.376,0.055-0.689,0.319-0.807,0.681c-0.118,0.362-0.02,0.759,0.253,1.025l4.176,4.071l-0.986,5.749  c-0.064,0.375,0.09,0.754,0.398,0.978c0.04,0.029,0.086,0.046,0.13,0.069h-1.865c-0.288,0-0.562,0.124-0.751,0.34  s-0.277,0.504-0.24,0.789l3.452,26.444h-1.224c-0.552,0-1,0.448-1,1v2.798h-0.948c-0.552,0-1,0.448-1,1v4.892H13.71  c-0.552,0-1,0.448-1,1s0.448,1,1,1h27.626h17.326h29.859c0.552,0,1-0.448,1-1S89.074,75.19,88.522,75.19z M43.043,27.043  l4.287-0.623c0.326-0.047,0.607-0.252,0.753-0.547L50,21.989l1.917,3.884c0.146,0.295,0.427,0.5,0.753,0.547l4.287,0.623  l-3.102,3.023c-0.235,0.23-0.343,0.561-0.288,0.885l0.732,4.27l-3.834-2.016C50.32,33.129,50.16,33.091,50,33.091  s-0.32,0.038-0.465,0.115L45.7,35.222l0.732-4.27c0.055-0.324-0.052-0.655-0.288-0.885L43.043,27.043z M50,35.221l5.149,2.707  H44.851L50,35.221z M43.188,39.928h13.624l-3.338,25.573H51V44.417c0-0.552-0.448-1-1-1s-1,0.448-1,1v21.083h-2.474L43.188,39.928z   M44.285,67.501h1.363h8.704h1.363v1.798H44.285V67.501z M42.337,75.19v-3.892h0.948h13.431h0.948v3.892H42.337z"/><path d="M71.784,80.245H30.449c-0.552,0-1,0.448-1,1s0.448,1,1,1h41.335c0.552,0,1-0.448,1-1S72.336,80.245,71.784,80.245z"/><path d="M23.988,21.505c0.008,0.055,0.031,0.105,0.048,0.158c0.023,0.072,0.045,0.142,0.084,0.207  c0.008,0.013,0.008,0.028,0.016,0.041c0.052,0.078,0.114,0.145,0.181,0.204c0.014,0.012,0.031,0.02,0.045,0.032  c0.085,0.066,0.178,0.115,0.277,0.15c0.014,0.005,0.023,0.016,0.037,0.02c0.039,0.012,3.962,1.289,4.346,3.978  c0.071,0.499,0.499,0.859,0.988,0.859c0.047,0,0.095-0.003,0.143-0.01c0.547-0.078,0.927-0.584,0.849-1.131  c-0.387-2.715,3.027-5.013,3.062-5.036c0.006-0.004,0.009-0.01,0.014-0.014c0.099-0.068,0.185-0.153,0.254-0.253  c0.019-0.028,0.028-0.059,0.044-0.088c0.033-0.06,0.071-0.116,0.091-0.183c0.005-0.016,0.001-0.032,0.005-0.048  c0.018-0.068,0.018-0.137,0.021-0.208c0.002-0.061,0.01-0.12,0.002-0.179c-0.008-0.06-0.033-0.116-0.053-0.174  c-0.022-0.066-0.042-0.131-0.077-0.191c-0.009-0.014-0.009-0.031-0.018-0.045c-0.026-0.039-0.065-0.061-0.094-0.095  c-0.046-0.053-0.089-0.104-0.146-0.147c-0.056-0.042-0.117-0.069-0.18-0.098c-0.041-0.019-0.074-0.051-0.118-0.065  c-0.04-0.013-3.96-1.264-4.348-3.979c-0.078-0.547-0.591-0.926-1.131-0.849c-0.547,0.078-0.927,0.584-0.849,1.131  c0.387,2.715-3.028,5.013-3.062,5.036c-0.042,0.028-0.067,0.07-0.103,0.103c-0.049,0.043-0.097,0.084-0.138,0.137  c-0.042,0.056-0.069,0.117-0.098,0.179c-0.02,0.042-0.052,0.076-0.067,0.122c-0.005,0.017-0.001,0.034-0.005,0.05  c-0.016,0.064-0.016,0.128-0.019,0.194C23.987,21.377,23.979,21.441,23.988,21.505z M28.907,18.406  c0.825,0.916,1.847,1.573,2.695,2.008c-0.692,0.654-1.49,1.571-2.026,2.681c-0.825-0.916-1.847-1.573-2.695-2.008  C27.573,20.433,28.371,19.517,28.907,18.406z"/><path d="M71.644,37.596c0.003,0.017-0.002,0.033,0.002,0.049c0.015,0.061,0.047,0.112,0.072,0.168  c0.018,0.04,0.028,0.081,0.051,0.119c0.064,0.106,0.144,0.199,0.239,0.273c0.002,0.002,0.003,0.004,0.005,0.006  c0.033,0.025,3.286,2.546,2.718,5.229c-0.114,0.54,0.231,1.071,0.771,1.186c0.07,0.015,0.139,0.021,0.208,0.021  c0.462,0,0.878-0.322,0.978-0.793c0.568-2.683,4.564-3.669,4.604-3.679c0.042-0.01,0.074-0.037,0.113-0.052  c0.055-0.02,0.104-0.042,0.155-0.072c0.083-0.049,0.153-0.109,0.217-0.179c0.025-0.026,0.059-0.037,0.081-0.067  c0.01-0.014,0.012-0.031,0.022-0.045c0.038-0.055,0.06-0.117,0.086-0.179c0.025-0.06,0.054-0.116,0.067-0.178  c0.012-0.055,0.007-0.112,0.009-0.169c0.002-0.074,0.006-0.146-0.007-0.219c-0.003-0.015,0.002-0.03-0.002-0.045  c-0.01-0.043-0.038-0.075-0.053-0.115c-0.026-0.069-0.05-0.135-0.091-0.197c-0.037-0.056-0.082-0.099-0.129-0.146  c-0.034-0.035-0.055-0.078-0.095-0.108c-0.033-0.025-3.279-2.571-2.717-5.228c0.114-0.54-0.231-1.071-0.771-1.186  c-0.541-0.114-1.071,0.23-1.186,0.771c-0.568,2.683-4.563,3.669-4.604,3.679c-0.048,0.011-0.084,0.042-0.128,0.059  c-0.062,0.024-0.122,0.046-0.179,0.083c-0.061,0.039-0.109,0.089-0.159,0.139c-0.031,0.031-0.071,0.05-0.098,0.086  c-0.01,0.013-0.012,0.03-0.021,0.043c-0.04,0.059-0.065,0.124-0.092,0.19c-0.023,0.056-0.05,0.108-0.062,0.166  c-0.013,0.06-0.009,0.12-0.01,0.182C71.636,37.461,71.632,37.528,71.644,37.596z M77.33,35.991c0.461,1.144,1.196,2.111,1.843,2.811  c-0.875,0.377-1.939,0.964-2.823,1.823c-0.461-1.144-1.195-2.112-1.843-2.811C75.381,37.437,76.445,36.85,77.33,35.991z"/><path d="M30.857,55.06c0.053,0,0.105-0.004,0.159-0.012c0.545-0.087,0.917-0.6,0.831-1.145l-0.263-1.649  c-0.087-0.546-0.604-0.917-1.145-0.831c-0.545,0.087-0.917,0.6-0.831,1.145l0.263,1.649C29.949,54.709,30.374,55.06,30.857,55.06z"/><path d="M31.848,61.291c0.052,0,0.105-0.004,0.158-0.012c0.545-0.087,0.917-0.599,0.831-1.145l-0.262-1.65  c-0.087-0.546-0.605-0.915-1.145-0.831c-0.545,0.087-0.917,0.599-0.831,1.145l0.262,1.65C30.94,60.94,31.365,61.291,31.848,61.291z"/><path d="M28.775,55.727l-1.65,0.263c-0.545,0.087-0.917,0.6-0.831,1.145c0.079,0.492,0.503,0.843,0.986,0.843  c0.052,0,0.105-0.004,0.159-0.012l1.65-0.263c0.545-0.087,0.917-0.6,0.831-1.145C29.833,56.012,29.325,55.644,28.775,55.727z"/><path d="M32.525,56.143c0.079,0.492,0.503,0.843,0.987,0.843c0.052,0,0.105-0.004,0.158-0.012l1.649-0.262  c0.545-0.087,0.917-0.599,0.831-1.145c-0.087-0.545-0.599-0.913-1.145-0.831l-1.649,0.262  C32.811,55.085,32.439,55.597,32.525,56.143z"/><path d="M55.949,12.261c0.015,0,0.03,0.001,0.044,0.001c0.532,0,0.975-0.42,0.998-0.957l0.072-1.669  c0.024-0.552-0.404-1.019-0.956-1.042c-0.561-0.021-1.019,0.404-1.042,0.956l-0.072,1.669C54.969,11.77,55.397,12.237,55.949,12.261  z"/><path d="M55.675,18.563c0.015,0,0.029,0.001,0.044,0.001c0.532,0,0.975-0.419,0.998-0.957l0.073-1.669  c0.024-0.552-0.404-1.019-0.956-1.042c-0.53-0.018-1.019,0.403-1.042,0.956l-0.073,1.669C54.695,18.073,55.123,18.54,55.675,18.563z  "/><path d="M51.862,14.405l1.669,0.072c0.015,0,0.03,0.001,0.044,0.001c0.532,0,0.975-0.42,0.998-0.957  c0.024-0.552-0.404-1.019-0.956-1.042l-1.669-0.072c-0.559-0.006-1.018,0.404-1.042,0.956  C50.883,13.914,51.311,14.381,51.862,14.405z"/><path d="M58.165,14.678l1.669,0.073c0.015,0,0.029,0.001,0.044,0.001c0.532,0,0.975-0.419,0.998-0.957  c0.024-0.552-0.404-1.019-0.956-1.042l-1.669-0.073c-0.528-0.026-1.019,0.403-1.042,0.956  C57.186,14.188,57.613,14.654,58.165,14.678z"/><path d="M68.341,58.87c0.01,0.007,1.033,0.71,1.21,1.901c0.135,0.91-0.253,1.921-1.155,3.007c-0.353,0.425-0.295,1.056,0.13,1.408  c0.187,0.155,0.414,0.231,0.639,0.231c0.287,0,0.572-0.123,0.77-0.361c1.281-1.542,1.818-3.083,1.595-4.58  c-0.311-2.085-2.017-3.229-2.086-3.275c-1.66-1.101-2.447-2.287-2.34-3.526c0.115-1.34,1.253-2.446,1.642-2.653  c0.474-0.096,0.821-0.524,0.8-1.023c-0.023-0.552-0.49-0.976-1.042-0.956c-1.019,0.044-2.71,1.704-3.232,3.579  C64.901,53.949,64.809,56.526,68.341,58.87z"/><path d="M66.98,25.351c-0.456,0.312-0.573,0.934-0.262,1.39c0.194,0.284,0.507,0.436,0.827,0.436c0.194,0,0.391-0.057,0.563-0.174  c1.655-1.131,2.594-2.465,2.791-3.965c0.273-2.081-1.039-3.643-1.107-3.722c0,0,0,0,0,0c-0.47-0.55-0.831-1.09-1.074-1.604  c-0.236-0.5-0.833-0.712-1.331-0.478c-0.5,0.236-0.713,0.832-0.478,1.331c0.318,0.674,0.775,1.361,1.359,2.045  c0,0,0,0.001,0.001,0.001c0.008,0.01,0.811,0.988,0.644,2.185C68.788,23.7,68.137,24.56,66.98,25.351z"/><path d="M22.293,44.383c0.06,0,0.121-0.005,0.182-0.017c1.972-0.362,3.372-1.201,4.16-2.493c1.093-1.791,0.528-3.751,0.498-3.85  c0,0,0-0.001,0-0.001c-0.207-0.693-0.318-1.333-0.332-1.902c-0.013-0.553-0.496-1.029-1.023-0.976  c-0.552,0.013-0.989,0.471-0.976,1.023c0.018,0.745,0.157,1.559,0.413,2.42c0,0,0,0.001,0,0.001c0.003,0.012,0.34,1.232-0.297,2.258  c-0.482,0.776-1.426,1.298-2.804,1.552c-0.543,0.1-0.903,0.621-0.803,1.164C21.399,44.046,21.82,44.383,22.293,44.383z"/></svg>