<svg id="visual" viewBox="0 0 900 600" width="900" height="600" xmlns="http://www.w3.org/2000/svg" xmlns:xlink="http://www.w3.org/1999/xlink" version="1.1"><g stroke-width="1" stroke-linejoin="bevel"><path d="M462 364L381 286L389 420Z" fill="#00101c" stroke="#00101c"></path><path d="M381 286L288 438L389 420Z" fill="#15384f" stroke="#15384f"></path><path d="M321 474L397 493L389 420Z" fill="#112e42" stroke="#112e42"></path><path d="M389 420L493 523L462 364Z" fill="#246688" stroke="#246688"></path><path d="M288 438L321 474L389 420Z" fill="#297ea6" stroke="#297ea6"></path><path d="M580 297L537 306L632 393Z" fill="#1d4e6b" stroke="#1d4e6b"></path><path d="M462 364L537 306L381 286Z" fill="#15384f" stroke="#15384f"></path><path d="M381 286L233 383L288 438Z" fill="#15384f" stroke="#15384f"></path><path d="M261 281L233 383L381 286Z" fill="#19435d" stroke="#19435d"></path><path d="M288 438L195 526L321 474Z" fill="#205a7a" stroke="#205a7a"></path><path d="M477 173L427 177L381 286Z" fill="#297ea6" stroke="#297ea6"></path><path d="M381 286L280 177L261 281Z" fill="#112e42" stroke="#112e42"></path><path d="M632 393L537 306L462 364Z" fill="#205a7a" stroke="#205a7a"></path><path d="M537 306L477 173L381 286Z" fill="#112e42" stroke="#112e42"></path><path d="M428 600L493 523L397 493Z" fill="#205a7a" stroke="#205a7a"></path><path d="M397 493L493 523L389 420Z" fill="#205a7a" stroke="#205a7a"></path><path d="M612 211L477 173L537 306Z" fill="#19435d" stroke="#19435d"></path><path d="M186 176L193 323L261 281Z" fill="#205a7a" stroke="#205a7a"></path><path d="M261 281L193 323L233 383Z" fill="#19435d" stroke="#19435d"></path><path d="M338 136L381 286L427 177Z" fill="#112e42" stroke="#112e42"></path><path d="M338 136L280 177L381 286Z" fill="#205a7a" stroke="#205a7a"></path><path d="M379 91L338 136L427 177Z" fill="#15384f" stroke="#15384f"></path><path d="M493 523L632 393L462 364Z" fill="#15384f" stroke="#15384f"></path><path d="M300 600L397 493L321 474Z" fill="#081a28" stroke="#081a28"></path><path d="M300 600L428 600L397 493Z" fill="#15384f" stroke="#15384f"></path><path d="M493 523L604 523L632 393Z" fill="#15384f" stroke="#15384f"></path><path d="M428 600L461 600L493 523Z" fill="#15384f" stroke="#15384f"></path><path d="M592 95L468 104L477 173Z" fill="#19435d" stroke="#19435d"></path><path d="M477 173L468 104L427 177Z" fill="#19435d" stroke="#19435d"></path><path d="M704 264L612 211L580 297Z" fill="#277297" stroke="#277297"></path><path d="M580 297L612 211L537 306Z" fill="#112e42" stroke="#112e42"></path><path d="M468 104L379 91L427 177Z" fill="#277297" stroke="#277297"></path><path d="M165 97L186 176L280 177Z" fill="#246688" stroke="#246688"></path><path d="M193 323L138 414L233 383Z" fill="#297ea6" stroke="#297ea6"></path><path d="M233 383L195 526L288 438Z" fill="#205a7a" stroke="#205a7a"></path><path d="M60 271L138 414L193 323Z" fill="#277297" stroke="#277297"></path><path d="M138 414L195 526L233 383Z" fill="#1d4e6b" stroke="#1d4e6b"></path><path d="M195 526L300 600L321 474Z" fill="#00101c" stroke="#00101c"></path><path d="M564 600L604 523L493 523Z" fill="#246688" stroke="#246688"></path><path d="M165 97L280 177L282 0Z" fill="#1d4e6b" stroke="#1d4e6b"></path><path d="M280 177L186 176L261 281Z" fill="#297ea6" stroke="#297ea6"></path><path d="M604 523L668 404L632 393Z" fill="#0c2435" stroke="#0c2435"></path><path d="M632 393L704 264L580 297Z" fill="#205a7a" stroke="#205a7a"></path><path d="M461 600L564 600L493 523Z" fill="#277297" stroke="#277297"></path><path d="M604 523L720 522L668 404Z" fill="#277297" stroke="#277297"></path><path d="M668 404L704 264L632 393Z" fill="#277297" stroke="#277297"></path><path d="M612 211L592 95L477 173Z" fill="#277297" stroke="#277297"></path><path d="M708 90L592 95L612 211Z" fill="#00101c" stroke="#00101c"></path><path d="M468 104L395 0L379 91Z" fill="#00101c" stroke="#00101c"></path><path d="M0 434L107 520L138 414Z" fill="#205a7a" stroke="#205a7a"></path><path d="M138 414L107 520L195 526Z" fill="#1d4e6b" stroke="#1d4e6b"></path><path d="M195 526L162 600L300 600Z" fill="#15384f" stroke="#15384f"></path><path d="M107 520L162 600L195 526Z" fill="#112e42" stroke="#112e42"></path><path d="M282 0L280 177L338 136Z" fill="#081a28" stroke="#081a28"></path><path d="M186 176L60 271L193 323Z" fill="#112e42" stroke="#112e42"></path><path d="M60 193L60 271L186 176Z" fill="#205a7a" stroke="#205a7a"></path><path d="M491 0L395 0L468 104Z" fill="#19435d" stroke="#19435d"></path><path d="M379 91L282 0L338 136Z" fill="#205a7a" stroke="#205a7a"></path><path d="M704 264L720 206L612 211Z" fill="#246688" stroke="#246688"></path><path d="M791 180L720 206L825 301Z" fill="#19435d" stroke="#19435d"></path><path d="M592 95L491 0L468 104Z" fill="#15384f" stroke="#15384f"></path><path d="M570 0L491 0L592 95Z" fill="#205a7a" stroke="#205a7a"></path><path d="M702 600L720 522L604 523Z" fill="#205a7a" stroke="#205a7a"></path><path d="M668 404L772 402L704 264Z" fill="#0c2435" stroke="#0c2435"></path><path d="M395 0L282 0L379 91Z" fill="#112e42" stroke="#112e42"></path><path d="M165 97L60 193L186 176Z" fill="#00101c" stroke="#00101c"></path><path d="M720 522L772 402L668 404Z" fill="#00101c" stroke="#00101c"></path><path d="M719 0L570 0L592 95Z" fill="#112e42" stroke="#112e42"></path><path d="M564 600L702 600L604 523Z" fill="#246688" stroke="#246688"></path><path d="M720 522L783 529L772 402Z" fill="#277297" stroke="#277297"></path><path d="M0 510L85 600L107 520Z" fill="#297ea6" stroke="#297ea6"></path><path d="M107 520L85 600L162 600Z" fill="#0c2435" stroke="#0c2435"></path><path d="M0 227L0 273L60 271Z" fill="#15384f" stroke="#15384f"></path><path d="M60 271L0 434L138 414Z" fill="#00101c" stroke="#00101c"></path><path d="M0 273L0 434L60 271Z" fill="#297ea6" stroke="#297ea6"></path><path d="M791 180L708 90L720 206Z" fill="#081a28" stroke="#081a28"></path><path d="M720 206L708 90L612 211Z" fill="#246688" stroke="#246688"></path><path d="M282 0L185 0L165 97Z" fill="#112e42" stroke="#112e42"></path><path d="M165 97L65 77L60 193Z" fill="#19435d" stroke="#19435d"></path><path d="M60 193L0 227L60 271Z" fill="#205a7a" stroke="#205a7a"></path><path d="M0 131L0 227L60 193Z" fill="#112e42" stroke="#112e42"></path><path d="M0 434L0 510L107 520Z" fill="#19435d" stroke="#19435d"></path><path d="M702 600L783 529L720 522Z" fill="#277297" stroke="#277297"></path><path d="M139 0L65 77L165 97Z" fill="#246688" stroke="#246688"></path><path d="M825 301L720 206L704 264Z" fill="#15384f" stroke="#15384f"></path><path d="M825 301L704 264L772 402Z" fill="#112e42" stroke="#112e42"></path><path d="M900 297L825 301L900 420Z" fill="#246688" stroke="#246688"></path><path d="M185 0L139 0L165 97Z" fill="#19435d" stroke="#19435d"></path><path d="M65 77L0 131L60 193Z" fill="#00101c" stroke="#00101c"></path><path d="M0 0L0 131L65 77Z" fill="#277297" stroke="#277297"></path><path d="M0 510L0 600L85 600Z" fill="#297ea6" stroke="#297ea6"></path><path d="M900 139L788 82L791 180Z" fill="#081a28" stroke="#081a28"></path><path d="M791 180L788 82L708 90Z" fill="#15384f" stroke="#15384f"></path><path d="M708 90L719 0L592 95Z" fill="#081a28" stroke="#081a28"></path><path d="M788 82L719 0L708 90Z" fill="#246688" stroke="#246688"></path><path d="M702 600L834 600L783 529Z" fill="#1d4e6b" stroke="#1d4e6b"></path><path d="M900 420L825 301L772 402Z" fill="#297ea6" stroke="#297ea6"></path><path d="M900 420L772 402L783 529Z" fill="#1d4e6b" stroke="#1d4e6b"></path><path d="M825 301L900 163L791 180Z" fill="#19435d" stroke="#19435d"></path><path d="M900 507L900 420L783 529Z" fill="#297ea6" stroke="#297ea6"></path><path d="M834 600L900 507L783 529Z" fill="#0c2435" stroke="#0c2435"></path><path d="M139 0L0 0L65 77Z" fill="#081a28" stroke="#081a28"></path><path d="M900 297L900 163L825 301Z" fill="#246688" stroke="#246688"></path><path d="M788 82L836 0L719 0Z" fill="#0c2435" stroke="#0c2435"></path><path d="M900 163L900 139L791 180Z" fill="#19435d" stroke="#19435d"></path><path d="M834 600L900 600L900 507Z" fill="#1d4e6b" stroke="#1d4e6b"></path><path d="M900 139L836 0L788 82Z" fill="#0c2435" stroke="#0c2435"></path><path d="M900 139L900 0L836 0Z" fill="#0c2435" stroke="#0c2435"></path></g></svg>