<svg width="51" height="63" viewBox="0 0 51 63" fill="none" xmlns="http://www.w3.org/2000/svg">
<g clip-path="url(#clip0_1496_54)">
<mask id="mask0_1496_54" style="mask-type:luminance" maskUnits="userSpaceOnUse" x="0" y="0" width="51" height="63">
<path d="M50.8924 0.00390625H0.210938V62.4718H50.8924V0.00390625Z" fill="white"/>
</mask>
<g mask="url(#mask0_1496_54)">
<path d="M50.6876 33.1114C50.7522 39.0388 50.8384 44.9663 50.8697 50.8938C50.8808 52.9891 50.7163 55.0844 50.7045 57.1801C50.6883 60.1859 48.366 62.0176 45.63 62.0768C40.0268 62.1982 34.4211 62.3275 28.8174 62.2999C22.3243 62.2679 15.8315 62.0962 9.34001 61.9245C7.7691 61.8549 6.20423 61.6854 4.65494 61.4167C2.87286 61.1394 1.12284 59.0089 1.02761 57.0698C0.933318 55.1387 0.856929 53.2057 0.831706 51.2724C0.714786 42.2784 0.609619 33.2844 0.516274 24.2905C0.458756 19.0068 0.436625 13.7227 0.355533 8.43939C0.33196 6.94182 0.223753 5.43944 0.829806 4.03331C1.15479 3.21381 1.59585 2.44534 2.13948 1.75132C2.80872 0.954097 3.7962 0.651868 4.85201 0.622874C7.02849 0.562999 9.20873 0.548891 11.38 0.405334C19.0426 -0.100773 26.7039 0.29465 34.3662 0.351696C35.9956 0.363718 37.2351 0.895817 38.4372 2.03839C40.8909 4.3702 43.5242 6.51195 46.0685 8.74923C47.0371 9.60093 47.9357 10.5333 48.9187 11.3659C49.8256 12.1346 50.1779 13.1017 50.2121 14.2402C50.272 16.2555 50.3676 18.2713 50.396 20.2856C50.4556 24.5606 50.4818 28.8367 50.522 33.1121L50.6876 33.1114ZM33.6989 3.36251C32.9865 3.30664 32.391 3.22808 31.7941 3.21794C26.7143 3.13277 21.6342 3.05545 16.554 2.98568C14.2576 2.95385 11.9608 2.93974 9.66414 2.92559C8.49707 2.91828 7.32759 2.88158 6.16357 2.9424C4.54012 3.02702 4.03852 3.49617 3.74646 5.09135C3.45541 6.59754 3.38665 8.13835 3.54235 9.66454C3.63839 10.5461 3.68673 11.4322 3.68709 12.319C3.71158 26.5523 3.73004 40.7854 3.74244 55.0187C3.73486 55.301 3.74574 55.5833 3.77501 55.8638C4.01898 57.6984 4.98658 58.9231 7.06997 59.0053C14.8511 59.3117 22.6317 59.3149 30.4149 59.1831C34.3259 59.1167 38.2371 59.0836 42.1483 59.0391C43.1148 59.0283 44.0834 59.0642 45.0478 59.0183C46.7326 58.9378 47.5769 58.0942 47.5619 56.4464C47.5317 53.2233 47.4552 50.0006 47.3913 46.7783C47.3582 45.1258 47.3237 43.473 47.2674 41.8209C47.1348 37.9133 46.9244 34.0067 46.8669 30.0979C46.8012 25.7039 46.8683 21.308 46.8734 16.9131C46.8734 16.6435 46.8392 16.3736 46.8202 16.0975C46.6834 16.0657 46.544 16.0441 46.4039 16.0333C43.9448 16.0828 41.4864 16.16 39.0273 16.1747C38.2619 16.1803 37.4991 16.0924 36.7549 15.9124C35.2381 15.5386 34.7608 14.9523 34.6005 13.3966C34.456 11.994 34.3622 10.586 34.2363 9.18133C34.0666 7.29907 33.8886 5.4166 33.6989 3.3632V3.36251ZM44.9752 12.8388L45.0309 12.5846L37.0444 5.33741L36.8608 5.45528C37.2527 8.0287 37.6445 10.6021 38.0486 13.255L44.9752 12.8388Z" fill="#0C0E14"/>
<path d="M8.03946 13.9878C8.03946 12.8212 8.00818 11.6539 8.04729 10.4885C8.09915 8.95159 8.54842 8.50121 10.0962 8.4013C12.2616 8.26148 14.4291 8.15025 16.5957 8.02767C17.5704 7.97275 18.2785 8.45197 18.497 9.50164C18.6955 10.5679 18.8346 11.6442 18.9136 12.7258C19.0474 13.8846 19.1182 15.0498 19.1257 16.2162C19.0924 17.0123 18.953 17.8002 18.7113 18.5594C18.4704 19.38 17.792 19.7782 16.9637 19.8034C14.8327 19.8687 12.6994 19.9519 10.5691 19.913C8.57676 19.8765 8.19745 19.4449 8.05577 17.4851C8.01217 16.8835 7.98034 16.2803 7.96386 15.6773C7.94852 15.1146 7.96052 14.5512 7.96052 13.9883L8.03946 13.9878ZM10.7975 16.9006C11.7282 17.2052 14.0864 17.12 15.5592 16.7339V10.6386C14.2863 10.3557 11.2565 10.3793 10.3515 10.6876L10.7975 16.9006Z" fill="#0C0E14"/>
<path d="M24.8548 28.2368C29.6464 28.3335 34.4385 28.4212 39.2298 28.5404C39.7502 28.5602 40.2627 28.6762 40.7411 28.8825C40.9688 28.9758 41.1613 29.1385 41.2917 29.3473C41.4217 29.5564 41.4828 29.8009 41.4663 30.0465C41.4706 30.2931 41.3944 30.534 41.2493 30.7332C41.1042 30.9326 40.8981 31.0792 40.6625 31.1509C40.007 31.3267 39.3314 31.4149 38.6526 31.4128C34.9076 31.3286 31.1645 31.1598 27.4195 31.0969C23.9965 31.0392 20.5717 31.0865 17.1477 31.0733C15.0533 31.0651 12.9584 31.0481 10.8649 30.9934C10.3044 30.9524 9.74935 30.856 9.20796 30.7051C9.00676 30.6665 8.82657 30.5557 8.70119 30.3937C8.57581 30.2318 8.51386 30.0295 8.52693 29.8251C8.50843 29.621 8.56385 29.4171 8.68302 29.2502C8.80219 29.0836 8.9772 28.9652 9.17632 28.9164C9.56094 28.804 9.95809 28.7399 10.3585 28.7255C15.1897 28.5954 20.0213 28.4735 24.8532 28.3599C24.8537 28.3186 24.8541 28.2778 24.8548 28.2368Z" fill="#0C0E14"/>
<path d="M8.37402 35.5948C8.65948 34.6978 9.3455 34.5877 10.0418 34.5415C11.5302 34.443 13.0197 34.3202 14.5102 34.2983C22.4959 34.1809 30.482 34.0809 38.4684 33.9989C39.0312 33.984 39.5936 34.0406 40.142 34.1672C40.434 34.2259 40.6973 34.3817 40.8898 34.6092C41.0819 34.8367 41.1918 35.1224 41.2008 35.4201C41.2105 35.7178 41.1186 36.01 40.9408 36.2488C40.7634 36.488 40.5102 36.6597 40.2225 36.7366C39.7247 36.8906 39.2089 36.9768 38.6882 36.9923C36.7922 37.0038 34.8964 36.9758 33.0007 36.9449C26.0231 36.8278 19.0456 36.7039 12.0681 36.5724C11.1842 36.5552 10.3002 36.4388 9.42024 36.3332C8.87451 36.2657 8.87799 36.2355 8.37402 35.5948Z" fill="#0C0E14"/>
<path d="M27.095 26.1785C23.667 26.1785 20.2387 26.1451 16.8114 26.1934C15.2417 26.2153 13.6762 26.4072 12.106 26.5041C11.342 26.5512 10.5738 26.5892 9.81026 26.5748C9.0722 26.5599 8.65849 26.2554 8.61183 25.7969C8.56468 25.3214 8.89474 24.953 9.64293 24.8526C11.6796 24.5796 13.717 24.2592 15.7647 24.1338C23.0129 23.6899 30.2714 23.5914 37.5322 23.6485C38.1769 23.6407 38.8219 23.6786 39.4616 23.7623C40.1781 23.8712 40.5502 24.3045 40.5391 24.8596C40.5279 25.4148 40.1483 25.828 39.4293 25.9121C38.5486 26.0173 37.663 26.0736 36.7762 26.0812C33.549 26.1003 30.3219 26.0887 27.0947 26.0887L27.095 26.1785Z" fill="#0C0E14"/>
<path d="M35.8435 48.9273C34.7559 48.9273 33.6683 48.9434 32.5811 48.923C31.5724 48.9039 31.0752 48.5527 31.0675 47.9112C31.0597 47.2698 31.5434 46.93 32.5537 46.8636C34.5631 46.7325 36.5722 46.592 38.5827 46.4804C39.1039 46.4487 39.6271 46.4725 40.1436 46.5511C40.3886 46.5755 40.617 46.6861 40.7876 46.8636C40.9585 47.0414 41.0605 47.2737 41.0756 47.5194C41.136 48.1005 40.9233 48.5922 40.3821 48.8023C39.8951 48.9876 39.3822 49.0943 38.8621 49.1183C37.8579 49.1654 36.8498 49.1324 35.8433 49.1324C35.8433 49.0645 35.8435 48.9959 35.8435 48.9273Z" fill="#0C0E14"/>
</g>
</g>
<defs>
<clipPath id="clip0_1496_54">
<rect width="51" height="62.493" fill="white"/>
</clipPath>
</defs>
</svg>
