<svg width="24" height="29" viewBox="0 0 24 29" fill="none" xmlns="http://www.w3.org/2000/svg">
<path d="M1 1H3.19561L6.11577 17.8551C6.22289 18.4724 6.50074 19.0242 6.90148 19.4156C7.30222 19.8069 7.80079 20.0134 8.31138 19.9993H19.0479C19.5476 19.9983 20.0321 19.7867 20.4213 19.3993C20.8105 19.0119 21.0812 18.472 21.1886 17.8687L23 7.78547H4.37026" stroke="black" stroke-width="2" stroke-linecap="round" stroke-linejoin="round"/>
<path d="M7.16683 27.5833C8.17935 27.5833 9.00016 26.7812 9.00016 25.7917C9.00016 24.8022 8.17935 24 7.16683 24C6.15431 24 5.3335 24.8022 5.3335 25.7917C5.3335 26.7812 6.15431 27.5833 7.16683 27.5833Z" stroke="black" stroke-width="2" stroke-linecap="round" stroke-linejoin="round"/>
<path d="M16.8333 27.5833C17.8459 27.5833 18.6667 26.7812 18.6667 25.7917C18.6667 24.8022 17.8459 24 16.8333 24C15.8208 24 15 24.8022 15 25.7917C15 26.7812 15.8208 27.5833 16.8333 27.5833Z" stroke="black" stroke-width="2" stroke-linecap="round" stroke-linejoin="round"/>
</svg>
