<svg width="29" height="22" viewBox="0 0 29 22" fill="none" xmlns="http://www.w3.org/2000/svg">
<path d="M4.35 9.42857C5.94953 9.42857 7.25 8.0192 7.25 6.28571C7.25 4.55223 5.94953 3.14286 4.35 3.14286C2.75047 3.14286 1.45 4.55223 1.45 6.28571C1.45 8.0192 2.75047 9.42857 4.35 9.42857ZM24.65 9.42857C26.2495 9.42857 27.55 8.0192 27.55 6.28571C27.55 4.55223 26.2495 3.14286 24.65 3.14286C23.0505 3.14286 21.75 4.55223 21.75 6.28571C21.75 8.0192 23.0505 9.42857 24.65 9.42857ZM26.1 11H23.2C22.4025 11 21.682 11.3487 21.1564 11.9134C22.9825 12.9987 24.2784 14.958 24.5594 17.2857H27.55C28.352 17.2857 29 16.5835 29 15.7143V14.1429C29 12.4094 27.6995 11 26.1 11ZM14.5 11C17.3048 11 19.575 8.53973 19.575 5.5C19.575 2.46027 17.3048 0 14.5 0C11.6952 0 9.425 2.46027 9.425 5.5C9.425 8.53973 11.6952 11 14.5 11ZM17.98 12.5714H17.6039C16.6614 13.0625 15.6147 13.3571 14.5 13.3571C13.3853 13.3571 12.3431 13.0625 11.3961 12.5714H11.02C8.13813 12.5714 5.8 15.1054 5.8 18.2286V19.6429C5.8 20.9442 6.77422 22 7.975 22H21.025C22.2258 22 23.2 20.9442 23.2 19.6429V18.2286C23.2 15.1054 20.8619 12.5714 17.98 12.5714ZM7.84359 11.9134C7.31797 11.3487 6.5975 11 5.8 11H2.9C1.30047 11 0 12.4094 0 14.1429V15.7143C0 16.5835 0.647969 17.2857 1.45 17.2857H4.43609C4.72156 14.958 6.0175 12.9987 7.84359 11.9134Z" fill="white"/>
</svg>
