<svg width="30" height="30" viewBox="0 0 30 30" fill="none" xmlns="http://www.w3.org/2000/svg">
<path d="M10.3218 14.0729C10.3218 10.269 13.132 8.79927 15.9076 7.14193C18.7019 5.47152 20.6357 3.84235 20.6236 0.00374916L22.4898 0C22.5058 4.55565 20.0677 6.5532 17.1674 8.28456C14.5428 9.85182 12.159 10.9833 12.1609 14.0729H10.3218Z" fill="#324D5B"/>
<path d="M1.87675 14.0645H28.1234C29.1583 14.0645 29.9982 14.9034 29.9982 15.9392V28.1252C29.9982 29.161 29.1583 30 28.1234 30H1.87675C0.841871 30 0.00195312 29.161 0.00195312 28.1252V15.9392C0.00195312 14.9034 0.841871 14.0645 1.87675 14.0645Z" fill="#EBEBEB"/>
<path d="M5.15751 20.6251H6.56355V19.219C6.56355 18.4428 7.19351 17.813 7.96959 17.813C8.74577 17.813 9.37563 18.443 9.37563 19.219V20.6251H10.7817C11.5579 20.6251 12.1877 21.255 12.1877 22.0311C12.1877 22.8073 11.5577 23.4372 10.7817 23.4372H9.37573V24.8432C9.37573 25.6194 8.74577 26.2492 7.96969 26.2492C7.19351 26.2492 6.56365 25.6202 6.56365 24.8432V23.4372H5.15751C4.38132 23.4372 3.75146 22.8072 3.75146 22.0311C3.75146 21.255 4.38132 20.6251 5.15751 20.6251Z" fill="#324D5B"/>
<path d="M19.6868 22.5C20.7217 22.5 21.5616 23.3399 21.5616 24.3748C21.5616 25.4106 20.7217 26.2496 19.6868 26.2496C18.6519 26.2496 17.812 25.4106 17.812 24.3748C17.8121 23.3399 18.6518 22.5 19.6868 22.5Z" fill="#E2574C"/>
<path d="M24.3738 17.813C25.4087 17.813 26.2486 18.6529 26.2486 19.6878C26.2486 20.7236 25.4087 21.5626 24.3738 21.5626C23.3389 21.5626 22.499 20.7236 22.499 19.6878C22.499 18.6529 23.339 17.813 24.3738 17.813Z" fill="#3DB39E"/>
</svg>
