<svg xmlns="http://www.w3.org/2000/svg" viewBox="0 0 250 312.5" x="0px" y="0px"><path d="M210.63,46.67c-6.93-5.45-15.81-7.39-24.38-5.31l-5.44,1.32c-.23-8.35-7.07-15.08-15.48-15.08H84.8c-8.42,0-15.27,6.74-15.48,15.11l-5.58-1.35c-8.56-2.07-17.45-.13-24.38,5.31-6.93,5.45-10.9,13.63-10.9,22.44v.46c0,22.28,13.14,42.55,33.48,51.65l12.69,5.68c6.59,13.94,18.79,24.94,33.91,29.64v19.63c-8.09,2.41-14.38,9.05-16.28,17.34-11.55,1.53-20.49,11.44-20.49,23.4,0,3.04,2.46,5.5,5.5,5.5h95.57c3.04,0,5.5-2.46,5.5-5.5,0-11.96-8.94-21.86-20.49-23.4-1.91-8.3-8.19-14.93-16.28-17.34v-19.62c15.15-4.71,27.37-15.75,33.95-29.72l12.52-5.6c20.34-9.1,33.48-29.37,33.48-51.65v-.46c0-8.81-3.97-16.99-10.9-22.44ZM66.44,111.19c-16.38-7.33-26.97-23.66-26.97-41.61v-.46c0-5.42,2.44-10.45,6.7-13.8,4.26-3.35,9.72-4.54,14.99-3.27l8.14,1.97v49.26c0,3.25,.29,6.45,.84,9.57l-3.7-1.66Zm58.63,47.86c1.84,0,3.68-.1,5.51-.28v16.43h-11.03v-16.43c1.83,.18,3.67,.29,5.52,.29Zm41.02,52.36H84.05c2.05-4.21,6.36-7.11,11.35-7.11h59.35c4.98,0,9.3,2.91,11.35,7.11Zm-19.88-18.11h-42.28c2.05-4.21,6.36-7.11,11.35-7.11h19.58c4.98,0,9.3,2.91,11.35,7.11Zm-11.12-46.38c-6.56,.99-13.49,.99-20.01,0-20.16-4.58-34.77-22.9-34.77-43.64V43.09c0-2.48,2.02-4.5,4.5-4.5h80.53c2.48,0,4.5,2.02,4.5,4.5v5.4c-.17,.77-.18,1.58,0,2.4v52.39c0,5.8-1.15,11.41-3.23,16.58-.26,.44-.47,.91-.6,1.4-5.61,12.64-16.92,22.46-30.92,25.66Zm75.45-77.34c0,17.95-10.59,34.28-26.97,41.61l-3.55,1.59c.55-3.1,.83-6.28,.83-9.5V53.98l8.01-1.94c5.27-1.27,10.73-.08,14.99,3.27s6.7,8.38,6.7,13.8v.46Z"/><path d="M145.23,75.03l-8.66-1.26-3.87-7.84c-1.44-2.93-4.37-4.75-7.64-4.75h0c-3.27,0-6.19,1.82-7.64,4.75l-3.87,7.84-8.66,1.26c-3.23,.47-5.87,2.69-6.88,5.8s-.18,6.45,2.16,8.73l6.26,6.11-1.48,8.62c-.55,3.22,.75,6.41,3.39,8.33,1.49,1.08,3.24,1.64,5,1.64,1.35,0,2.71-.33,3.97-.99l7.74-4.07,7.74,4.07c2.89,1.52,6.33,1.27,8.97-.65,2.64-1.92,3.94-5.11,3.39-8.33l-1.48-8.62,6.26-6.11c2.34-2.28,3.16-5.63,2.15-8.73s-3.64-5.33-6.88-5.8Zm-10.15,13.67c-2.01,1.96-2.93,4.78-2.45,7.54l.85,4.95-4.45-2.34c-1.24-.65-2.6-.98-3.96-.98s-2.72,.33-3.96,.98l-4.45,2.34,.85-4.95c.47-2.76-.44-5.58-2.45-7.54l-3.6-3.51,4.97-.72c2.78-.4,5.17-2.14,6.42-4.66l2.22-4.5,2.23,4.51c1.24,2.51,3.64,4.25,6.41,4.65l4.97,.72-3.6,3.5Z"/></svg>