<svg xmlns="http://www.w3.org/2000/svg" xmlns:xlink="http://www.w3.org/1999/xlink" xmlns:serif="http://www.serif.com/" viewBox="0 0 32 40" version="1.1" xml:space="preserve" style="" x="0px" y="0px" fill-rule="evenodd" fill="white" clip-rule="evenodd" stroke-linejoin="round" stroke-miterlimit="2"><g transform="matrix(1,0,0,1,-144,-384)"><path d="M156,407.414L157.293,408.707C157.683,409.097 158.317,409.097 158.707,408.707C159.097,408.317 159.097,407.683 158.707,407.293L155.707,404.293C155.367,403.953 154.842,403.909 154.455,404.161L154.428,404.18L154.399,404.201L154.374,404.22L154.349,404.241L154.325,404.262L154.302,404.284L154.293,404.293C154.293,404.293 151.293,407.293 151.293,407.293C150.903,407.683 150.903,408.317 151.293,408.707C151.683,409.097 152.317,409.097 152.707,408.707L154,407.414L154,411C154,411.796 154.316,412.559 154.879,413.121C155.441,413.684 156.204,414 157,414C160.463,414 167.537,414 171,414C171.796,414 172.559,413.684 173.121,413.121C173.684,412.559 174,411.796 174,411C174,407.537 174,400.463 174,397C174,396.204 173.684,395.441 173.121,394.879C172.559,394.316 171.796,394 171,394C170,394 169,394 169,394C168.448,394 168,394.448 168,395C168,395.552 168.448,396 169,396C169,396 170,396 171,396C171.265,396 171.52,396.105 171.707,396.293C171.895,396.48 172,396.735 172,397L172,411C172,411.265 171.895,411.52 171.707,411.707C171.52,411.895 171.265,412 171,412L157,412C156.735,412 156.48,411.895 156.293,411.707C156.105,411.52 156,411.265 156,411L156,407.414ZM163.277,406.001L166.728,406.013L168.072,409.371C168.276,409.884 168.859,410.133 169.371,409.928C169.884,409.724 170.133,409.141 169.928,408.629L165.928,398.629C165.777,398.249 165.409,398 165,398C164.591,398 164.223,398.249 164.072,398.629L160.072,408.629C159.867,409.141 160.116,409.724 160.629,409.928C161.141,410.133 161.724,409.884 161.928,409.371L163.277,406.001ZM164,392.586L162.707,391.293C162.317,390.903 161.683,390.903 161.293,391.293C160.903,391.683 160.903,392.317 161.293,392.707L164.293,395.707C164.624,396.038 165.129,396.088 165.514,395.858L165.541,395.841L165.571,395.821L165.596,395.803L165.621,395.784L165.646,395.764L165.67,395.743L165.693,395.721L165.707,395.707C165.707,395.707 168.707,392.707 168.707,392.707C169.097,392.317 169.097,391.683 168.707,391.293C168.317,390.903 167.683,390.903 167.293,391.293L166,392.586L166,389C166,388.204 165.684,387.441 165.121,386.879C164.559,386.316 163.796,386 163,386C159.537,386 152.463,386 149,386C148.204,386 147.441,386.316 146.879,386.879C146.316,387.441 146,388.204 146,389C146,392.463 146,399.537 146,403C146,403.796 146.316,404.559 146.879,405.121C147.441,405.684 148.204,406 149,406C150,406 151,406 151,406C151.552,406 152,405.552 152,405C152,404.448 151.552,404 151,404C151,404 150,404 149,404C148.735,404 148.48,403.895 148.293,403.707C148.105,403.52 148,403.265 148,403L148,389C148,388.735 148.105,388.48 148.293,388.293C148.48,388.105 148.735,388 149,388L163,388C163.265,388 163.52,388.105 163.707,388.293C163.895,388.48 164,388.735 164,389L164,392.586ZM164.076,404.004L165.927,404.01L165,401.693L164.076,404.004ZM157.457,394C156.957,395.103 156.327,396.25 155.524,397.246C155.201,396.855 154.906,396.442 154.636,396.018C154.339,395.552 153.721,395.416 153.255,395.712C152.79,396.009 152.653,396.628 152.95,397.093C153.298,397.639 153.682,398.167 154.106,398.663C153.204,399.368 152.142,399.865 150.888,400.006C150.339,400.068 149.944,400.564 150.006,401.112C150.068,401.661 150.564,402.056 151.112,401.994C152.843,401.798 154.296,401.068 155.51,400.048C156.44,400.811 157.51,401.409 158.735,401.746C159.267,401.892 159.818,401.579 159.964,401.047C160.111,400.515 159.797,399.964 159.265,399.817C158.383,399.575 157.606,399.155 156.922,398.622C158.273,397.005 159.233,395.062 159.892,393.361C160.091,392.846 159.835,392.267 159.32,392.067C159.215,392.027 159.107,392.005 159,392.001L159,392L158.978,392C158.966,392 158.953,392 158.941,392L156.548,392C156.548,392 156.548,391 156.548,391C156.548,390.448 156.1,390 155.548,390C154.996,390 154.548,390.448 154.548,391L154.548,392L151,392C150.448,392 150,392.448 150,393C150,393.552 150.448,394 151,394L157.457,394Z"/></g></svg>