<svg xmlns="http://www.w3.org/2000/svg" version="1.1" viewBox="-5.0 -10.0 110.0 135.0">
 <path d="m49.965 17.371c3.8594 0 7.3555 1.5664 9.8867 4.0977 2.5352 2.5352 4.1016 6.0312 4.1016 9.8906 0 3.8555-1.5664 7.3516-4.0977 9.8828l-0.007813 0.007812c-2.5352 2.5273-6.0273 4.0938-9.8828 4.0938-3.8555 0-7.3516-1.5664-9.8828-4.0977l-0.007812-0.007813c-2.5273-2.5352-4.0938-6.0273-4.0938-9.8828 0-3.8633 1.5664-7.3594 4.0977-9.8906l0.089844-0.082032c2.5273-2.4844 5.9883-4.0156 9.8008-4.0156zm-30.879 2.0156c-0.58594 0.58203-1.5312 0.57812-2.1172-0.007813-0.58203-0.58594-0.57812-1.5312 0.007812-2.1172l0.30078-0.29688c0.58594-0.58203 1.5312-0.57812 2.1172 0.007812 0.58203 0.58594 0.57812 1.5312-0.007812 2.1172zm5.3203-4.5742c-0.66797 0.48438-1.6016 0.33594-2.0859-0.32812-0.48437-0.66797-0.33594-1.6016 0.32813-2.0859 3.9102-2.8516 8.2812-5.1055 12.965-6.6289 4.5352-1.4727 9.3711-2.2734 14.387-2.2734 12.84 0 24.465 5.207 32.883 13.621 8.4141 8.4141 13.621 20.043 13.621 32.883s-5.207 24.465-13.621 32.883c-8.4141 8.4141-20.043 13.621-32.883 13.621s-24.465-5.207-32.883-13.621c-8.4141-8.4141-13.621-20.043-13.621-32.883 0-5.0156 0.79688-9.8555 2.2734-14.387 1.5234-4.6836 3.7773-9.0547 6.6289-12.965 0.48437-0.66797 1.418-0.8125 2.0859-0.32813 0.66797 0.48438 0.8125 1.418 0.32812 2.0859-2.6562 3.6445-4.7656 7.7344-6.1953 12.133-1.375 4.2305-2.1211 8.7578-2.1211 13.461 0 12.012 4.8711 22.891 12.742 30.758 7.8711 7.8711 18.746 12.742 30.758 12.742 12.012 0 22.891-4.8711 30.758-12.742 7.8711-7.8711 12.742-18.746 12.742-30.758s-4.8711-22.891-12.742-30.758c-7.8711-7.8711-18.746-12.742-30.758-12.742-4.7031 0-9.2305 0.74609-13.461 2.1211-4.3984 1.4297-8.4844 3.5391-12.133 6.1953zm15.949 34.211h19.293c4.0352 0 7.707 1.6523 10.367 4.3086l0.082031 0.089844c2.6133 2.6523 4.2266 6.2891 4.2266 10.277v11.797c0 0.82812-0.67188 1.5-1.5 1.5h-45.645c-0.82813 0-1.5-0.67188-1.5-1.5v-11.797c0-4.0352 1.6523-7.6992 4.3086-10.359 2.6602-2.6641 6.3281-4.3164 10.367-4.3164zm19.293 3h-19.293c-3.207 0-6.1289 1.3164-8.2461 3.4297s-3.4297 5.0312-3.4297 8.2461v10.297h42.645v-10.297c0-3.1758-1.2852-6.0703-3.3555-8.1719l-0.074219-0.070313c-2.1172-2.1172-5.0352-3.4297-8.2461-3.4297zm-1.9062-28.438c-1.9883-1.9883-4.7344-3.2148-7.7734-3.2148-3.0039 0-5.7227 1.1992-7.6992 3.1445l-0.070312 0.074219c-1.9883 1.9883-3.2188 4.7344-3.2188 7.7695 0 3.0391 1.2266 5.7852 3.2109 7.7695 1.9883 1.9883 4.7383 3.2188 7.7734 3.2188 3.0391 0 5.7852-1.2266 7.7695-3.2109 1.9883-1.9883 3.2188-4.7383 3.2188-7.7734 0-3.0352-1.2266-5.7852-3.2148-7.7734z"/>
</svg>