<svg xmlns="http://www.w3.org/2000/svg" data-name="Layer 1" viewBox="0 0 100 125" x="0px" y="0px"><title>UI3</title><path d="M91.06,19.11a1.37,1.37,0,0,0-1-1.48Q70.47,9,50.9.23a2.06,2.06,0,0,0-1.9,0Q29.49,8.93,10,17.57a1.52,1.52,0,0,0-1,1.66v26a57.35,57.35,0,0,0,12.5,36A52.18,52.18,0,0,0,48.09,99.7a6.23,6.23,0,0,0,3.82,0c11.51-3.46,20.58-10.31,27.68-19.86A57.3,57.3,0,0,0,90.28,54.55,59,59,0,0,0,91,45.84C91.1,36.92,91,28,91.06,19.11Zm-41,31.5ZM86,46.34A51.45,51.45,0,0,1,85.38,54,50.37,50.37,0,0,1,76,76.16,46.25,46.25,0,0,1,51.72,93.58a5.56,5.56,0,0,1-1.63.26V6.18a1.92,1.92,0,0,1,.75.18Q68,14,85.16,21.62a1.19,1.19,0,0,1,.86,1.3Q86,34.62,86,46.34Z"/></svg>