<svg id="visual" viewBox="0 0 900 600" width="900" height="600" xmlns="http://www.w3.org/2000/svg" xmlns:xlink="http://www.w3.org/1999/xlink" version="1.1"><path d="M0 19L18.8 20C37.7 21 75.3 23 112.8 24C150.3 25 187.7 25 225.2 25C262.7 25 300.3 25 337.8 27C375.3 29 412.7 33 450.2 34C487.7 35 525.3 33 562.8 33C600.3 33 637.7 35 675.2 36C712.7 37 750.3 37 787.8 34C825.3 31 862.7 25 881.3 22L900 19L900 0L881.3 0C862.7 0 825.3 0 787.8 0C750.3 0 712.7 0 675.2 0C637.7 0 600.3 0 562.8 0C525.3 0 487.7 0 450.2 0C412.7 0 375.3 0 337.8 0C300.3 0 262.7 0 225.2 0C187.7 0 150.3 0 112.8 0C75.3 0 37.7 0 18.8 0L0 0Z" fill="#6198ff"></path><path d="M0 61L18.8 61C37.7 61 75.3 61 112.8 62C150.3 63 187.7 65 225.2 64C262.7 63 300.3 59 337.8 60C375.3 61 412.7 67 450.2 70C487.7 73 525.3 73 562.8 72C600.3 71 637.7 69 675.2 72C712.7 75 750.3 83 787.8 81C825.3 79 862.7 67 881.3 61L900 55L900 17L881.3 20C862.7 23 825.3 29 787.8 32C750.3 35 712.7 35 675.2 34C637.7 33 600.3 31 562.8 31C525.3 31 487.7 33 450.2 32C412.7 31 375.3 27 337.8 25C300.3 23 262.7 23 225.2 23C187.7 23 150.3 23 112.8 22C75.3 21 37.7 19 18.8 18L0 17Z" fill="#548fff"></path><path d="M0 103L18.8 100C37.7 97 75.3 91 112.8 92C150.3 93 187.7 101 225.2 101C262.7 101 300.3 93 337.8 94C375.3 95 412.7 105 450.2 109C487.7 113 525.3 111 562.8 109C600.3 107 637.7 105 675.2 108C712.7 111 750.3 119 787.8 115C825.3 111 862.7 95 881.3 87L900 79L900 53L881.3 59C862.7 65 825.3 77 787.8 79C750.3 81 712.7 73 675.2 70C637.7 67 600.3 69 562.8 70C525.3 71 487.7 71 450.2 68C412.7 65 375.3 59 337.8 58C300.3 57 262.7 61 225.2 62C187.7 63 150.3 61 112.8 60C75.3 59 37.7 59 18.8 59L0 59Z" fill="#4686ff"></path><path d="M0 127L18.8 125C37.7 123 75.3 119 112.8 119C150.3 119 187.7 123 225.2 123C262.7 123 300.3 119 337.8 120C375.3 121 412.7 127 450.2 130C487.7 133 525.3 133 562.8 131C600.3 129 637.7 125 675.2 127C712.7 129 750.3 137 787.8 133C825.3 129 862.7 113 881.3 105L900 97L900 77L881.3 85C862.7 93 825.3 109 787.8 113C750.3 117 712.7 109 675.2 106C637.7 103 600.3 105 562.8 107C525.3 109 487.7 111 450.2 107C412.7 103 375.3 93 337.8 92C300.3 91 262.7 99 225.2 99C187.7 99 150.3 91 112.8 90C75.3 89 37.7 95 18.8 98L0 101Z" fill="#387dff"></path><path d="M0 169L18.8 165C37.7 161 75.3 153 112.8 151C150.3 149 187.7 153 225.2 153C262.7 153 300.3 149 337.8 149C375.3 149 412.7 153 450.2 158C487.7 163 525.3 169 562.8 167C600.3 165 637.7 155 675.2 154C712.7 153 750.3 161 787.8 159C825.3 157 862.7 145 881.3 139L900 133L900 95L881.3 103C862.7 111 825.3 127 787.8 131C750.3 135 712.7 127 675.2 125C637.7 123 600.3 127 562.8 129C525.3 131 487.7 131 450.2 128C412.7 125 375.3 119 337.8 118C300.3 117 262.7 121 225.2 121C187.7 121 150.3 117 112.8 117C75.3 117 37.7 121 18.8 123L0 125Z" fill="#2874ff"></path><path d="M0 223L18.8 222C37.7 221 75.3 219 112.8 215C150.3 211 187.7 205 225.2 203C262.7 201 300.3 203 337.8 205C375.3 207 412.7 209 450.2 212C487.7 215 525.3 219 562.8 218C600.3 217 637.7 211 675.2 212C712.7 213 750.3 221 787.8 222C825.3 223 862.7 217 881.3 214L900 211L900 131L881.3 137C862.7 143 825.3 155 787.8 157C750.3 159 712.7 151 675.2 152C637.7 153 600.3 163 562.8 165C525.3 167 487.7 161 450.2 156C412.7 151 375.3 147 337.8 147C300.3 147 262.7 151 225.2 151C187.7 151 150.3 147 112.8 149C75.3 151 37.7 159 18.8 163L0 167Z" fill="#126bff"></path><path d="M0 247L18.8 247C37.7 247 75.3 247 112.8 242C150.3 237 187.7 227 225.2 225C262.7 223 300.3 229 337.8 232C375.3 235 412.7 235 450.2 237C487.7 239 525.3 243 562.8 243C600.3 243 637.7 239 675.2 241C712.7 243 750.3 251 787.8 252C825.3 253 862.7 247 881.3 244L900 241L900 209L881.3 212C862.7 215 825.3 221 787.8 220C750.3 219 712.7 211 675.2 210C637.7 209 600.3 215 562.8 216C525.3 217 487.7 213 450.2 210C412.7 207 375.3 205 337.8 203C300.3 201 262.7 199 225.2 201C187.7 203 150.3 209 112.8 213C75.3 217 37.7 219 18.8 220L0 221Z" fill="#0064f9"></path><path d="M0 349L18.8 349C37.7 349 75.3 349 112.8 356C150.3 363 187.7 377 225.2 383C262.7 389 300.3 387 337.8 379C375.3 371 412.7 357 450.2 356C487.7 355 525.3 367 562.8 374C600.3 381 637.7 383 675.2 377C712.7 371 750.3 357 787.8 348C825.3 339 862.7 335 881.3 333L900 331L900 239L881.3 242C862.7 245 825.3 251 787.8 250C750.3 249 712.7 241 675.2 239C637.7 237 600.3 241 562.8 241C525.3 241 487.7 237 450.2 235C412.7 233 375.3 233 337.8 230C300.3 227 262.7 221 225.2 223C187.7 225 150.3 235 112.8 240C75.3 245 37.7 245 18.8 245L0 245Z" fill="#005fec"></path><path d="M0 373L18.8 372C37.7 371 75.3 369 112.8 375C150.3 381 187.7 395 225.2 401C262.7 407 300.3 405 337.8 398C375.3 391 412.7 379 450.2 378C487.7 377 525.3 387 562.8 394C600.3 401 637.7 405 675.2 400C712.7 395 750.3 381 787.8 371C825.3 361 862.7 355 881.3 352L900 349L900 329L881.3 331C862.7 333 825.3 337 787.8 346C750.3 355 712.7 369 675.2 375C637.7 381 600.3 379 562.8 372C525.3 365 487.7 353 450.2 354C412.7 355 375.3 369 337.8 377C300.3 385 262.7 387 225.2 381C187.7 375 150.3 361 112.8 354C75.3 347 37.7 347 18.8 347L0 347Z" fill="#005ae0"></path><path d="M0 397L18.8 397C37.7 397 75.3 397 112.8 405C150.3 413 187.7 429 225.2 435C262.7 441 300.3 437 337.8 430C375.3 423 412.7 413 450.2 411C487.7 409 525.3 415 562.8 421C600.3 427 637.7 433 675.2 429C712.7 425 750.3 411 787.8 400C825.3 389 862.7 381 881.3 377L900 373L900 347L881.3 350C862.7 353 825.3 359 787.8 369C750.3 379 712.7 393 675.2 398C637.7 403 600.3 399 562.8 392C525.3 385 487.7 375 450.2 376C412.7 377 375.3 389 337.8 396C300.3 403 262.7 405 225.2 399C187.7 393 150.3 379 112.8 373C75.3 367 37.7 369 18.8 370L0 371Z" fill="#0055d3"></path><path d="M0 445L18.8 445C37.7 445 75.3 445 112.8 455C150.3 465 187.7 485 225.2 499C262.7 513 300.3 521 337.8 515C375.3 509 412.7 489 450.2 485C487.7 481 525.3 493 562.8 501C600.3 509 637.7 513 675.2 508C712.7 503 750.3 489 787.8 480C825.3 471 862.7 467 881.3 465L900 463L900 371L881.3 375C862.7 379 825.3 387 787.8 398C750.3 409 712.7 423 675.2 427C637.7 431 600.3 425 562.8 419C525.3 413 487.7 407 450.2 409C412.7 411 375.3 421 337.8 428C300.3 435 262.7 439 225.2 433C187.7 427 150.3 411 112.8 403C75.3 395 37.7 395 18.8 395L0 395Z" fill="#0051c7"></path><path d="M0 601L18.8 601C37.7 601 75.3 601 112.8 601C150.3 601 187.7 601 225.2 601C262.7 601 300.3 601 337.8 601C375.3 601 412.7 601 450.2 601C487.7 601 525.3 601 562.8 601C600.3 601 637.7 601 675.2 601C712.7 601 750.3 601 787.8 601C825.3 601 862.7 601 881.3 601L900 601L900 461L881.3 463C862.7 465 825.3 469 787.8 478C750.3 487 712.7 501 675.2 506C637.7 511 600.3 507 562.8 499C525.3 491 487.7 479 450.2 483C412.7 487 375.3 507 337.8 513C300.3 519 262.7 511 225.2 497C187.7 483 150.3 463 112.8 453C75.3 443 37.7 443 18.8 443L0 443Z" fill="#004cbb"></path></svg>